<?xml version="1.0" encoding="UTF-8" standalone="no"?>
<svg
   xmlns:dc="http://purl.org/dc/elements/1.1/"
   xmlns:cc="http://creativecommons.org/ns#"
   xmlns:rdf="http://www.w3.org/1999/02/22-rdf-syntax-ns#"
   xmlns:svg="http://www.w3.org/2000/svg"
   xmlns="http://www.w3.org/2000/svg"
   xmlns:sodipodi="http://sodipodi.sourceforge.net/DTD/sodipodi-0.dtd"
   xmlns:inkscape="http://www.inkscape.org/namespaces/inkscape"
   width="16"
   height="16"
   viewBox="-0.5 -12.5 28.8 28.8"
   version="1.1"
   id="svg11"
   sodipodi:docname="debug-enabled.svg"
   inkscape:version="0.92.4 (5da689c313, 2019-01-14)"
   style="fill:none">
  <metadata
     id="metadata15">
    <rdf:RDF>
      <cc:Work
         rdf:about="">
        <dc:format>image/svg+xml</dc:format>
        <dc:type
           rdf:resource="http://purl.org/dc/dcmitype/StillImage" />
        <dc:title></dc:title>
      </cc:Work>
    </rdf:RDF>
  </metadata>
  <sodipodi:namedview
     pagecolor="#ffffff"
     bordercolor="#666666"
     borderopacity="1"
     objecttolerance="10"
     gridtolerance="10"
     guidetolerance="10"
     inkscape:pageopacity="0"
     inkscape:pageshadow="2"
     inkscape:window-width="3440"
     inkscape:window-height="1377"
     id="namedview13"
     showgrid="false"
     inkscape:pagecheckerboard="true"
     inkscape:zoom="16"
     inkscape:cx="3.735303"
     inkscape:cy="14.044954"
     inkscape:window-x="-8"
     inkscape:window-y="-8"
     inkscape:window-maximized="1"
     inkscape:current-layer="svg11" />
  <g
     clip-path="url(#clip0)"
     id="g4"
     style="fill:#007acc;fill-opacity:1;stroke:none;stroke-opacity:1"
     transform="translate(0,-12)">
    <path
       d="m 15.1673,18.0687 v 4.956 c 0,0.539 0.105,1.4753 -0.4358,1.4753 H 12.8328 V 23.3327 H 14 v -3.7205 l -0.2012,-0.21 C 13.0604,20.0803 12.1008,20.4669 11.0986,20.49 10.0964,20.5132 9.11994,20.1714 8.351,19.5282 7,18.1737 7.13826,16.3327 8.60475,14 H 4.66726 v 1.1672 H 3.50001 v -1.8987 c 0,-0.5408 0.93625,-0.4358 1.47525,-0.4358 h 4.788 z m -3.5,-12.23595 H 10.5 v -1.1655 h 2.275 C 13.3123,4.66725 14,4.9245 14,5.4635 V 9.366 l 0.8593,1.0202 c 0.0677,-0.54641 0.3313,-1.04976 0.742,-1.41662 0.4106,-0.36687 0.9403,-0.57235 1.491,-0.57833 0.1375,-0.0118 0.2761,0.00367 0.4077,0.0455 v -2.604 h 1.1673 v 3.0555 c 0.0357,0.10329 0.0945,0.19711 0.1718,0.2744 0.0773,0.0773 0.1711,0.13606 0.2744,0.17185 h 3.0538 V 10.5 h -2.6058 c 0.0315,0 0.049,0.175 0.049,0.35 -0.0047,0.5534 -0.2094,1.0865 -0.5764,1.5008 -0.367,0.4143 -0.8715,0.6818 -1.4203,0.7532 L 18.634,14 h 3.9043 c 0.539,0 0.7962,0.6807 0.7962,1.225 V 17.5 h -1.1672 v -1.1673 h -2.94 l -7.56,-7.34995 z M 14,0 C 11.2311,0 8.52431,0.821086 6.22202,2.35943 3.91973,3.89776 2.12532,6.08426 1.06569,8.64243 0.00606593,11.2006 -0.271181,14.0155 0.269012,16.7313 c 0.540193,2.7157 1.873568,5.2103 3.831498,7.1682 1.95794,1.9579 4.4525,3.2913 7.16819,3.8315 2.7158,0.5402 5.5307,0.2629 8.0889,-0.7967 2.5581,-1.0596 4.7446,-2.854 6.283,-5.1563 C 27.1789,19.4757 28,16.7689 28,14 28,10.287 26.525,6.72601 23.8995,4.1005 21.274,1.475 17.713,0 14,0 Z m 11.6673,14 c 0.0019,2.6908 -0.9309,5.2988 -2.639,7.378 L 6.622,4.97175 c 1.70836,-1.39906 3.7789,-2.2842 5.9707,-2.5524 2.1918,-0.2682 4.4147,0.09156 6.41,1.03741 1.9953,0.94586 3.6809,2.43891 4.8608,4.30541 1.1798,1.8665 1.8054,4.02973 1.8038,6.23783 z M 2.33276,14 C 2.33066,11.3091 3.26351,8.70111 4.97176,6.622 L 21.378,23.03 c -1.7087,1.3984 -3.7793,2.283 -5.971,2.5507 C 13.2153,25.8485 10.9926,25.4884 8.99754,24.5425 7.00244,23.5965 5.31693,22.1036 4.13708,20.2373 2.95722,18.3709 2.33152,16.208 2.33276,14 Z"
       id="path2"
       style="fill:#007acc;fill-opacity:1;stroke:none;stroke-opacity:1"
       inkscape:connector-curvature="0" />
  </g>
  <defs
     id="defs9">
    <clipPath
       id="clip0">
      <rect
         width="28"
         height="28"
         id="rect6"
         x="0"
         y="0"
         style="fill:#ffffff" />
    </clipPath>
  </defs>
</svg>
