<?xml version="1.0" encoding="UTF-8" standalone="no"?>
<!-- Created with Inkscape (http://www.inkscape.org/) -->

<svg
   xmlns:dc="http://purl.org/dc/elements/1.1/"
   xmlns:cc="http://creativecommons.org/ns#"
   xmlns:rdf="http://www.w3.org/1999/02/22-rdf-syntax-ns#"
   xmlns:svg="http://www.w3.org/2000/svg"
   xmlns="http://www.w3.org/2000/svg"
   xmlns:sodipodi="http://sodipodi.sourceforge.net/DTD/sodipodi-0.dtd"
   xmlns:inkscape="http://www.inkscape.org/namespaces/inkscape"
   width="200mm"
   height="200mm"
   viewBox="0 0 200 200"
   version="1.1"
   id="svg996"
   sodipodi:docname="material.svg"
   inkscape:version="0.92.2 (5c3e80d, 2017-08-06)">
  <defs
     id="defs990" />
  <sodipodi:namedview
     id="base"
     pagecolor="#ffffff"
     bordercolor="#666666"
     borderopacity="1.0"
     inkscape:pageopacity="0.0"
     inkscape:pageshadow="2"
     inkscape:zoom="0.98994949"
     inkscape:cx="464.80169"
     inkscape:cy="157.96949"
     inkscape:document-units="mm"
     inkscape:current-layer="layer1"
     showgrid="false"
     inkscape:window-width="2560"
     inkscape:window-height="1537"
     inkscape:window-x="1672"
     inkscape:window-y="-8"
     inkscape:window-maximized="1" />
  <metadata
     id="metadata993">
    <rdf:RDF>
      <cc:Work
         rdf:about="">
        <dc:format>image/svg+xml</dc:format>
        <dc:type
           rdf:resource="http://purl.org/dc/dcmitype/StillImage" />
        <dc:title></dc:title>
      </cc:Work>
    </rdf:RDF>
  </metadata>
  <g
     inkscape:label="Layer 1"
     inkscape:groupmode="layer"
     id="layer1"
     transform="translate(0,-97)">
    <path
       style="fill:#d3d3d3;fill-opacity:1;stroke:#686868;stroke-width:0;stroke-linecap:butt;stroke-linejoin:round;stroke-miterlimit:4;stroke-dasharray:none;stroke-dashoffset:0;stroke-opacity:1"
       d="m 77.960923,115.74792 c 20.842054,0.0302 41.685597,0.0397 62.526727,0.0978 6.32588,2.38732 12.46966,6.1606 17.99777,11.4667 5.08518,5.48084 8.88864,13.93758 10.15216,23.29218 0.5143,9.78228 0.25328,19.62033 0.35343,29.42599 0.0274,21.44236 0.0555,42.88474 0.0837,64.3271 -0.78363,0.9067 -2.16606,0.13812 -3.17653,0.39275 -18.96252,0.0729 -37.92682,-0.16627 -56.88818,0.1811 -0.56299,0.10611 -1.51402,-0.30443 -1.48254,1.04316 -0.86137,9.28845 -5.34294,17.17626 -10.894933,20.78807 -3.72153,2.61325 -7.625529,5.09926 -11.744108,5.58662 -4.533074,-0.49684 -8.838277,-3.21051 -12.89799,-6.19106 -4.18465,-3.04439 -7.614671,-8.55908 -9.192321,-15.27628 -0.706332,-2.65727 -1.141344,-5.45716 -0.953078,-8.34316 -0.107222,-29.82375 -0.02067,-59.65076 -0.287645,-89.47219 0.09389,-4.74872 -1.385906,-9.20315 -2.760975,-13.30034 -2.435928,-6.83987 -6.260738,-12.43989 -10.863148,-15.71298 -3.693806,-3.02161 -7.581133,-5.29395 -11.510499,-7.41062 -0.466174,-1.17313 0.889961,-0.70981 1.31174,-0.8043 13.408598,-0.11826 26.817659,-0.0851 40.226431,-0.0907 z"
       id="path1651"
       inkscape:connector-curvature="0" />
    <path
       style="fill:#a9a9a9;fill-opacity:1;stroke:#686868;stroke-width:0;stroke-linecap:butt;stroke-linejoin:round;stroke-miterlimit:4;stroke-dasharray:none;stroke-dashoffset:0;stroke-opacity:1"
       d="m 31.202085,127.49797 c 5.239367,0.4959 10.111359,4.0543 14.679652,7.77058 2.341438,2.08893 4.170103,5.36107 5.704536,8.7331 1.137364,3.11994 2.280756,6.51621 2.286571,10.17242 -0.784188,0.90566 -2.16598,0.13782 -3.176532,0.39222 -14.011611,0 -28.02324,0 -42.0348507,0 -0.5679093,-0.66067 0.015455,-2.16831 0.021444,-3.15688 1.1038452,-6.74114 4.1095567,-12.69909 7.9564877,-16.30782 4.327671,-3.46841 8.894476,-6.78148 13.803271,-7.59049 0.253005,-0.0178 0.506281,-0.0207 0.75946,-0.0118 z"
       id="path1653"
       inkscape:connector-curvature="0" />
    <path
       style="fill:#a9a9a9;fill-opacity:1;stroke:#686868;stroke-width:0;stroke-linecap:butt;stroke-linejoin:round;stroke-miterlimit:4;stroke-dasharray:none;stroke-dashoffset:0;stroke-opacity:1"
       d="m 199.54652,245.23414 c -0.0494,5.28303 -1.40814,10.42186 -3.04301,15.02692 -2.06259,4.92137 -4.6294,9.53659 -7.85302,12.73392 -5.3461,4.67625 -11.03893,8.75639 -17.11198,10.56574 -7.11622,0.55974 -14.25212,0.24511 -21.37612,0.36228 -20.07317,-5.9e-4 -40.14724,0.0934 -60.219829,-0.0827 -0.679768,-0.91077 0.769525,-1.11202 1.128496,-1.42063 5.470155,-2.74156 10.867673,-6.31466 15.482173,-11.63717 4.99347,-6.2023 8.15965,-15.60637 8.89649,-25.36066 0.84607,-0.79138 2.15508,-0.10582 3.17369,-0.33534 26.9078,0 53.81563,0 80.72345,0 l 0.16441,0.12152 z"
       id="path1655"
       inkscape:connector-curvature="0" />
    <path
       style="fill:#f7f7f7;fill-opacity:1;stroke:#686868;stroke-width:0;stroke-linecap:butt;stroke-linejoin:round;stroke-miterlimit:4;stroke-dasharray:none;stroke-dashoffset:0;stroke-opacity:1"
       d="m 31.28624,115.78456 c 5.059988,0.62744 9.827269,3.74287 14.40101,6.93368 3.914838,2.7122 7.656613,6.3115 10.359476,11.52574 2.608275,4.88008 4.637494,10.70403 5.29236,16.96851 0.470965,11.57303 0.241143,23.18599 0.34539,34.77583 0.04405,20.23146 0.09061,40.4629 0.136007,60.69436 0.972243,6.47276 3.236963,12.55333 6.789372,16.43738 3.581696,3.84406 7.697319,6.3649 11.874416,8.20281 2.695676,1.20194 5.545848,1.38123 8.234279,0.096 4.395424,-1.75892 8.657525,-4.63632 12.4316,-8.56364 3.54374,-4.24592 5.90262,-10.62819 6.51817,-17.45603 0.86825,-0.74484 2.14987,-0.0942 3.1712,-0.3129 1.40822,0.0714 2.85585,-0.13575 4.23977,0.28394 0.28544,1.3462 -0.23027,2.97649 -0.32267,4.41066 -1.68024,10.80424 -6.48281,20.57122 -13.06984,25.37581 -5.055501,4.00263 -10.404254,7.5934 -16.090495,8.71113 -3.966459,0.34112 -7.795732,-1.93709 -11.455362,-4.00711 -3.963309,-2.56719 -7.983495,-5.30046 -11.35919,-9.45983 -4.420713,-5.72785 -7.513709,-13.84786 -8.591937,-22.54061 -0.0653,-31.81591 -0.130405,-63.63185 -0.195318,-95.44776 -1.313188,-8.24757 -5.079075,-15.55243 -10.157782,-18.99935 -3.992251,-2.88425 -8.236463,-5.59913 -12.676282,-6.01432 -4.332733,0.3846 -8.54333,3.04483 -12.450865,5.86123 -3.950037,2.71474 -7.237733,7.57464 -9.0650846,13.6194 -0.805092,2.33195 -1.072548,5.00081 -1.4496988,7.49248 -2.4945429,0.0735 -5.0653583,0.32129 -7.53362698,0.0628 -0.19431322,-3.93013 0.89059908,-7.75182 1.81344198,-11.35455 1.7950308,-6.3149 4.8586808,-11.69364 8.4652984,-15.7351 4.209554,-3.82949 8.664558,-7.11464 13.312002,-9.49437 2.281896,-1.04061 4.638171,-2.04177 7.034398,-2.0664 z"
       id="path1659"
       inkscape:connector-curvature="0" />
  </g>
</svg>
