<?xml version="1.0" encoding="UTF-8" standalone="no"?>
<!DOCTYPE svg PUBLIC "-//W3C//DTD SVG 1.1//EN" "http://www.w3.org/Graphics/SVG/1.1/DTD/svg11.dtd">
<!-- Generated by Microsoft Visio, SVG Export m-settings-dark.svg Page-1 -->
<svg xmlns="http://www.w3.org/2000/svg" xmlns:xlink="http://www.w3.org/1999/xlink" xmlns:ev="http://www.w3.org/2001/xml-events"
		xmlns:v="http://schemas.microsoft.com/visio/2003/SVGExtensions/" width="0.936188in" height="1.06414in"
		viewBox="0 0 67.4055 76.6181" xml:space="preserve" color-interpolation-filters="sRGB" class="st3">
	<v:documentProperties v:langID="1033" v:viewMarkup="false"/>

	<style type="text/css">
	<![CDATA[
		.st1 {visibility:visible}
		.st2 {fill:#000000;stroke:none;stroke-linecap:butt;stroke-width:0.75}
		.st3 {fill:none;fill-rule:evenodd;font-size:12px;overflow:visible;stroke-linecap:square;stroke-miterlimit:3}
	]]>
	</style>

	<g v:mID="0" v:index="1" v:groupContext="foregroundPage">
		<title>Page-1</title>
		<v:pageProperties v:drawingScale="0.0393701" v:pageScale="0.0393701" v:drawingUnits="24" v:shadowOffsetX="8.50394"
				v:shadowOffsetY="-8.50394"/>
		<g id="shape25-1" v:mID="25" v:groupContext="shape" transform="translate(0.75,-0.75)">
			<title>Configure</title>
			<v:userDefs>
				<v:ud v:nameU="msvShapeCategories" v:prompt="" v:val="VT4(Icon)"/>
				<v:ud v:nameU="visVersion" v:prompt="" v:val="VT0(15):26"/>
			</v:userDefs>
			<g id="shadow25-2" v:groupContext="shadow" v:shadowOffsetX="0" v:shadowOffsetY="-4" v:shadowType="1" v:shadowScale="0"
					v:shadowAngle="-57" transform="matrix(1,0,0,1,0,0)" class="st1"/>
			<path d="M42.9 59.2 C41.99 58.81 39.09 57.59 39.09 57.59 L39.28 55.17 L39.43 53.15 L39.18 49.28 L41.09 48.18 C41.09 48.18
						 42.06 47.78 42.96 47.41 C42.31 45.83 42.04 45.17 41.39 43.59 C40.48 43.96 37.48 45.19 37.48 45.19 L36 43.34
						 C35.28 42.44 34.39 41.59 33.28 40.73 L31.52 39.36 L32.23 37.21 C32.23 37.21 32.65 36.2 33.05 35.23 C31.46
						 34.58 30.81 34.31 29.23 33.66 C28.82 34.67 27.56 37.73 27.56 37.73 L25.23 37.5 C24.05 37.38 22.82 37.4 21.59
						 37.57 L19.37 37.87 L18.34 35.83 C18.34 35.83 17.89 34.76 17.45 33.71 C15.87 34.38 15.22 34.65 13.65 35.32
						 C14.11 36.43 15.43 39.56 15.43 39.56 L13.64 41.05 C12.79 41.76 11.99 42.6 11.21 43.61 L9.86 45.37 L7.7 44.68
						 C7.7 44.68 6.53 44.21 5.37 43.74 C4.74 45.33 4.48 45.99 3.84 47.58 C5.01 48.05 8.14 49.3 8.14 49.3 C8.14
						 49.3 7.95 52.86 7.93 53.14 C7.95 53.4 8 54.19 8 54.21 C8 54.21 8.18 56.09 8.18 56.09 L7.06 57.11 C6.71 57.46
						 6.59 57.55 3.78 58.65 C4.4 60.25 4.66 60.91 5.28 62.5 C6.45 62.05 9.73 60.77 9.73 60.77 L11.42 63.09 C11.94
						 63.73 12.66 64.46 13.55 65.21 L15.21 66.61 L14.48 68.69 C14.48 68.69 13.97 69.86 13.48 71.01 C15.04 71.69
						 15.69 71.97 17.26 72.65 C17.72 71.58 19.08 68.43 19.08 68.43 L21.46 68.76 C22.58 68.92 23.79 68.95 25.05
						 68.84 L27.21 68.65 L28.18 70.65 C28.18 70.65 28.62 71.75 29.04 72.82 C30.63 72.18 31.29 71.92 32.87 71.28
						 C32.48 70.3 31.22 67.15 31.22 67.15 L33.6 65.44 C34.27 64.89 35.04 64.11 35.84 63.14 L37.22 61.46 L39.34
						 62.18 C39.34 62.18 40.34 62.6 41.3 63.01 C41.96 61.43 42.24 60.77 42.9 59.2 ZM42.18 55.55 C42.18 55.55 42.17
						 55.63 42.16 55.71 C42.56 55.88 46.73 57.64 46.73 57.64 L42.85 66.83 C42.85 66.83 38.6 65.04 38.2 64.87 C38.15
						 64.93 38.1 65 38.1 65 C37.17 66.12 36.26 67.04 35.3 67.81 C35.3 67.81 34.99 68.03 34.78 68.19 C34.95 68.61
						 36.67 72.91 36.67 72.91 L27.41 76.62 C27.41 76.62 25.62 72.14 25.46 71.74 C25.39 71.74 25.3 71.75 25.3 71.75
						 C23.82 71.88 22.38 71.85 21.05 71.66 C21.05 71.66 20.96 71.65 20.89 71.63 C20.71 72.04 18.79 76.5 18.79
						 76.5 L9.63 72.54 C9.63 72.54 11.62 67.95 11.79 67.55 C11.73 67.5 11.67 67.44 11.67 67.44 C10.63 66.57 9.78
						 65.71 9.06 64.81 C9.06 64.81 8.85 64.51 8.7 64.31 C8.28 64.48 3.62 66.29 3.62 66.29 L0 56.99 C0 56.99 4.99
						 55.05 4.99 55.04 C4.99 55.04 5.07 55.01 5.14 54.99 C5.12 54.74 5.09 54.4 5.09 54.4 L5.01 53.16 C5.01 53.16
						 5.09 51.6 5.11 51.24 C4.72 51.08 0.04 49.21 0.04 49.21 L3.75 39.94 C3.75 39.94 8.38 41.8 8.79 41.96 C8.84
						 41.9 8.89 41.83 8.89 41.83 C9.81 40.64 10.75 39.65 11.77 38.8 C11.77 38.8 11.84 38.75 11.9 38.7 C11.73 38.3
						 9.82 33.76 9.82 33.76 L19.01 29.88 C19.01 29.88 20.86 34.28 21.03 34.69 C21.11 34.68 21.2 34.67 21.2 34.67
						 C22.66 34.47 24.11 34.45 25.52 34.59 C25.52 34.59 25.6 34.59 25.68 34.6 C25.85 34.2 27.63 29.85 27.63 29.85
						 L36.86 33.64 C36.86 33.64 35.1 37.91 34.94 38.32 C35 38.37 35.07 38.42 35.07 38.42 C36.36 39.42 37.41 40.43
						 38.27 41.5 C38.27 41.5 38.33 41.58 38.39 41.66 C38.8 41.49 42.98 39.77 42.98 39.77 L46.77 49 C46.77 49 42.61
						 50.72 42.2 50.88 C42.21 50.96 42.22 51.04 42.22 51.04 C42.31 51.85 42.35 52.52 42.35 53.15 C42.35 53.87
						 42.3 54.63 42.18 55.55 ZM27.6 58.08 C30.31 55.92 30.75 51.96 28.58 49.25 C26.42 46.54 22.47 46.1 19.76 48.27
						 C17.05 50.43 16.61 54.39 18.78 57.1 C20.94 59.81 24.89 60.25 27.6 58.08 ZM24.7 44.03 C27.14 44.3 29.33 45.5
						 30.87 47.43 C34.04 51.39 33.39 57.2 29.43 60.37 C27.51 61.9 25.11 62.6 22.66 62.33 C20.22 62.06 18.03 60.85
						 16.49 58.92 C15.14 57.23 14.48 55.2 14.48 53.19 C14.48 50.48 15.66 47.8 17.93 45.99 C19.85 44.45 22.25 43.75
						 24.7 44.03 Z" class="st2"/>
		</g>
		<g id="shape29-4" v:mID="29" v:groupContext="shape" transform="translate(32.6398,-41.8524)">
			<title>Configure.29</title>
			<v:userDefs>
				<v:ud v:nameU="msvShapeCategories" v:prompt="" v:val="VT4(Icon)"/>
				<v:ud v:nameU="visVersion" v:prompt="" v:val="VT0(15):26"/>
			</v:userDefs>
			<g id="shadow29-5" v:groupContext="shadow" v:shadowOffsetX="0" v:shadowOffsetY="-4" v:shadowType="1" v:shadowScale="0"
					v:shadowAngle="-57" transform="matrix(1,0,0,1,0,0)" class="st1"/>
			<path d="M31.2 63.95 C30.54 63.67 28.43 62.78 28.43 62.78 L28.57 61.02 L28.68 59.55 L28.49 56.74 L29.88 55.94 C29.88
						 55.94 30.59 55.65 31.24 55.38 C30.77 54.22 30.57 53.75 30.1 52.59 C29.44 52.87 27.26 53.76 27.26 53.76 L26.18
						 52.42 C25.66 51.76 25.01 51.14 24.2 50.52 L22.92 49.52 L23.44 47.96 C23.44 47.96 23.74 47.22 24.03 46.52
						 C22.88 46.04 22.41 45.85 21.26 45.38 C20.96 46.11 20.04 48.33 20.04 48.33 L18.35 48.17 C17.49 48.08 16.6
						 48.1 15.7 48.22 L14.09 48.43 L13.34 46.96 C13.34 46.96 13.01 46.17 12.69 45.41 C11.54 45.9 11.07 46.1 9.92
						 46.58 C10.27 47.39 11.23 49.67 11.23 49.67 L9.92 50.75 C9.3 51.27 8.72 51.87 8.15 52.61 L7.17 53.89 L5.6
						 53.39 C5.6 53.39 4.75 53.05 3.91 52.71 C3.45 53.86 3.25 54.34 2.79 55.5 C3.65 55.84 5.92 56.75 5.92 56.75
						 C5.92 56.75 5.78 59.34 5.77 59.55 C5.78 59.73 5.82 60.31 5.82 60.32 C5.82 60.32 5.95 61.69 5.95 61.69 L5.13
						 62.43 C4.88 62.68 4.8 62.75 2.75 63.55 C3.2 64.71 3.39 65.19 3.84 66.35 C4.69 66.02 7.08 65.09 7.08 65.09
						 L8.31 66.78 C8.68 67.25 9.21 67.77 9.86 68.32 L11.06 69.34 L10.53 70.85 C10.53 70.85 10.16 71.7 9.8 72.54
						 C10.94 73.04 11.41 73.24 12.55 73.73 C12.89 72.95 13.88 70.67 13.88 70.67 L15.61 70.91 C16.42 71.02 17.3
						 71.04 18.22 70.96 L19.79 70.82 L20.49 72.28 C20.49 72.28 20.81 73.08 21.12 73.85 C22.28 73.39 22.75 73.2
						 23.91 72.74 C23.62 72.02 22.7 69.73 22.7 69.73 L24.43 68.49 C24.92 68.09 25.48 67.52 26.06 66.82 L27.07
						 65.59 L28.61 66.12 C28.61 66.12 29.34 66.43 30.03 66.72 C30.52 65.57 30.72 65.1 31.2 63.95 ZM30.68 61.3
						 C30.68 61.3 30.67 61.36 30.66 61.41 C30.96 61.54 33.98 62.81 33.98 62.81 L31.17 69.5 C31.17 69.5 28.07 68.2
						 27.78 68.07 C27.74 68.12 27.71 68.17 27.71 68.17 C27.03 68.98 26.37 69.65 25.68 70.21 C25.68 70.21 25.45
						 70.38 25.3 70.49 C25.42 70.79 26.67 73.92 26.67 73.92 L19.94 76.62 C19.94 76.62 18.63 73.36 18.52 73.07
						 C18.46 73.07 18.4 73.08 18.4 73.08 C17.32 73.17 16.28 73.15 15.31 73.01 C15.31 73.01 15.25 73 15.19 72.99
						 C15.06 73.29 13.66 76.53 13.66 76.53 L7.01 73.65 C7.01 73.65 8.45 70.31 8.57 70.02 C8.53 69.98 8.48 69.95
						 8.48 69.95 C7.73 69.31 7.11 68.68 6.59 68.03 C6.59 68.03 6.43 67.82 6.33 67.67 C6.02 67.79 2.64 69.11 2.64
						 69.11 L0 62.35 C0 62.35 3.63 60.93 3.63 60.93 C3.63 60.93 3.69 60.9 3.74 60.89 C3.72 60.71 3.7 60.46 3.7
						 60.46 L3.64 59.56 C3.64 59.56 3.7 58.43 3.72 58.16 C3.43 58.05 0.03 56.68 0.03 56.68 L2.72 49.94 C2.72 49.94
						 6.1 51.29 6.4 51.41 C6.43 51.37 6.47 51.32 6.47 51.32 C7.13 50.46 7.82 49.73 8.56 49.12 C8.56 49.12 8.61
						 49.08 8.65 49.04 C8.53 48.75 7.14 45.45 7.14 45.45 L13.82 42.63 C13.82 42.63 15.17 45.83 15.3 46.13 C15.35
						 46.12 15.42 46.11 15.42 46.11 C16.48 45.97 17.54 45.95 18.56 46.05 C18.56 46.05 18.62 46.05 18.68 46.06
						 C18.8 45.77 20.1 42.6 20.1 42.6 L26.8 45.36 C26.8 45.36 25.53 48.47 25.41 48.76 C25.45 48.8 25.5 48.84 25.5
						 48.84 C26.45 49.57 27.21 50.3 27.83 51.08 C27.83 51.08 27.88 51.14 27.92 51.19 C28.21 51.07 31.26 49.82
						 31.26 49.82 L34.02 56.53 C34.02 56.53 30.99 57.78 30.69 57.9 C30.7 57.96 30.7 58.02 30.7 58.02 C30.77 58.61
						 30.8 59.09 30.8 59.55 C30.8 60.07 30.76 60.63 30.68 61.3 ZM20.07 63.14 C22.04 61.56 22.36 58.69 20.79 56.72
						 C19.21 54.74 16.34 54.42 14.37 56 C12.4 57.58 12.08 60.45 13.66 62.42 C15.23 64.4 18.1 64.72 20.07 63.14
						 ZM17.96 52.91 C19.74 53.11 21.33 53.99 22.45 55.39 C24.75 58.27 24.28 62.49 21.4 64.8 C20.01 65.92 18.26
						 66.42 16.48 66.23 C14.7 66.03 13.11 65.15 11.99 63.75 C11.01 62.52 10.53 61.04 10.53 59.58 C10.53 57.61
						 11.39 55.66 13.04 54.34 C14.44 53.22 16.18 52.72 17.96 52.91 Z" class="st2"/>
		</g>
	</g>
</svg>
