<?xml version="1.0" encoding="UTF-8" standalone="no"?>
<svg
   xmlns:dc="http://purl.org/dc/elements/1.1/"
   xmlns:cc="http://creativecommons.org/ns#"
   xmlns:rdf="http://www.w3.org/1999/02/22-rdf-syntax-ns#"
   xmlns:svg="http://www.w3.org/2000/svg"
   xmlns="http://www.w3.org/2000/svg"
   xmlns:sodipodi="http://sodipodi.sourceforge.net/DTD/sodipodi-0.dtd"
   xmlns:inkscape="http://www.inkscape.org/namespaces/inkscape"
   viewBox="0 0 50 40"
   version="1.1"
   id="svg16"
   sodipodi:docname="tf-logo.svg"
   width="50"
   height="40"
   inkscape:version="0.92.3 (2405546, 2018-03-11)">
  <metadata
     id="metadata20">
    <rdf:RDF>
      <cc:Work
         rdf:about="">
        <dc:format>image/svg+xml</dc:format>
        <dc:type
           rdf:resource="http://purl.org/dc/dcmitype/StillImage" />
        <dc:title>Artboard 5</dc:title>
      </cc:Work>
    </rdf:RDF>
  </metadata>
  <sodipodi:namedview
     pagecolor="#ffffff"
     bordercolor="#666666"
     borderopacity="1"
     objecttolerance="10"
     gridtolerance="10"
     guidetolerance="10"
     inkscape:pageopacity="0"
     inkscape:pageshadow="2"
     inkscape:window-width="1920"
     inkscape:window-height="1137"
     id="namedview18"
     showgrid="false"
     inkscape:zoom="18.413771"
     inkscape:cx="25.118644"
     inkscape:cy="18.813559"
     inkscape:window-x="1272"
     inkscape:window-y="-8"
     inkscape:window-maximized="1"
     inkscape:current-layer="svg16" />
  <defs
     id="defs4">
    <style
       id="style2">.cls-1,.cls-2{fill:#86c540;}.cls-2{stroke:#86c540;stroke-miterlimit:10;stroke-width:0.68px;}</style>
  </defs>
  <title
     id="title6">Artboard 5</title>
  <g
     id="Isolation_Mode"
     data-name="Isolation Mode"
     transform="matrix(0.56988668,0,0,0.56988668,11.958929,5.5928135)"
     style="stroke-width:1.75473475">
    <path
       class="cls-1"
       d="M 8.74,24.2 C 10,15.77 19.85,13.71 26,13.37 c 0.7,0 1.42,-0.06 2.14,-0.06 6.85,0 14.58,2.11 17.64,4.35 3.06,2.24 0.42,-0.58 0.42,-0.58 L 45,16 C 42.85,14.1 36.61,9.52 26,8.92 c -0.69,0 -1.38,-0.05 -2.07,-0.05 -12,0 -22.34,6.14 -22.65,13.41 a 10.48,10.48 0 0 0 3.09,7.54 22,22 0 0 0 6.14,4.63 C 10.18,33.9 8.07,28.71 8.74,24.2 Z"
       id="path8"
       inkscape:connector-curvature="0"
       style="fill:#86c540;stroke-width:1.75473475" />
  </g>
  <g
     id="SPIR"
     transform="matrix(0.56988668,0,0,0.56988668,11.958929,5.5928135)"
     style="stroke-width:1.75473475">
    <path
       class="cls-2"
       d="m 18.93,23.38 h -5.65 v -3.49 h 15.45 v 3.49 h -5.65 v 15.37 h -4.15 z"
       id="path11"
       inkscape:connector-curvature="0"
       style="fill:#86c540;stroke:#86c540;stroke-width:1.19321966px;stroke-miterlimit:10" />
    <path
       class="cls-2"
       d="m 30.89,19.89 h 13.26 v 3.49 H 35 v 4.36 h 7.9 V 31 H 35 v 7.79 h -4.11 z"
       id="path13"
       inkscape:connector-curvature="0"
       style="fill:#86c540;stroke:#86c540;stroke-width:1.19321966px;stroke-miterlimit:10" />
  </g>
</svg>
