<?xml version="1.0" encoding="UTF-8" standalone="no"?>
<!-- Generated by Microsoft Visio, SVG Export m-settings-dark.svg Page-1 -->

<svg
   xmlns:v="http://schemas.microsoft.com/visio/2003/SVGExtensions/"
   xmlns:dc="http://purl.org/dc/elements/1.1/"
   xmlns:cc="http://creativecommons.org/ns#"
   xmlns:rdf="http://www.w3.org/1999/02/22-rdf-syntax-ns#"
   xmlns:svg="http://www.w3.org/2000/svg"
   xmlns="http://www.w3.org/2000/svg"
   xmlns:sodipodi="http://sodipodi.sourceforge.net/DTD/sodipodi-0.dtd"
   xmlns:inkscape="http://www.inkscape.org/namespaces/inkscape"
   width="0.936188in"
   height="1.06414in"
   viewBox="0 0 67.4055 76.6181"
   xml:space="preserve"
   color-interpolation-filters="sRGB"
   class="st3"
   version="1.1"
   id="svg7616"
   sodipodi:docname="settings.svg"
   inkscape:version="0.92.2 (5c3e80d, 2017-08-06)"><metadata
     id="metadata7622"><rdf:RDF><cc:Work
         rdf:about=""><dc:format>image/svg+xml</dc:format><dc:type
           rdf:resource="http://purl.org/dc/dcmitype/StillImage" /><dc:title /></cc:Work></rdf:RDF></metadata><defs
     id="defs7620" /><sodipodi:namedview
     pagecolor="#ffffff"
     bordercolor="#666666"
     borderopacity="1"
     objecttolerance="10"
     gridtolerance="10"
     guidetolerance="10"
     inkscape:pageopacity="0"
     inkscape:pageshadow="2"
     inkscape:window-width="2560"
     inkscape:window-height="1537"
     id="namedview7618"
     showgrid="false"
     inkscape:zoom="13.391096"
     inkscape:cx="32.802094"
     inkscape:cy="45.1046"
     inkscape:window-x="1672"
     inkscape:window-y="-8"
     inkscape:window-maximized="1"
     inkscape:current-layer="svg7616" /><v:documentProperties
     v:langID="1033"
     v:viewMarkup="false" /><style
     type="text/css"
     id="style7598"><![CDATA[
		.st1 {visibility:visible}
		.st2 {fill:#000000;stroke:none;stroke-linecap:butt;stroke-width:0.75}
		.st3 {fill:none;fill-rule:evenodd;font-size:12px;overflow:visible;stroke-linecap:square;stroke-miterlimit:3}
	]]></style><path
     style="opacity:1;fill:#000000;fill-opacity:1;stroke:none;stroke-width:0.05600736"
     d="m 26.900435,73.087357 c -0.65358,-1.626403 -0.997773,-2.41714 -1.047528,-2.406556 -0.316547,0.06733 -2.511377,0.07352 -3.255961,0.0092 -0.477463,-0.04126 -0.964016,-0.07635 -1.081229,-0.07798 l -0.213114,-0.003 -1.028819,2.380312 c -0.644718,1.491646 -1.056534,2.377785 -1.103058,2.373533 -0.07509,-0.0068 -8.712731,-3.731618 -8.927622,-3.849807 -0.112407,-0.06182 -0.08152,-0.144001 0.938123,-2.495715 0.579897,-1.337483 1.054357,-2.462698 1.054357,-2.500477 0,-0.03778 -0.253569,-0.289523 -0.563487,-0.559431 C 10.957118,65.334738 9.9538559,64.282632 9.519228,63.699731 9.3344032,63.451854 9.1679152,63.247917 9.1492537,63.246537 c -0.01866,-0.0014 -1.1632527,0.43861 -2.5435376,0.977752 -1.3802846,0.539174 -2.514242,0.973931 -2.5199054,0.966159 -0.037898,-0.05201 -3.52353264,-9.054119 -3.54031634,-9.143331 -0.01877,-0.09977 0.2562273,-0.219968 2.51607244,-1.099727 l 2.537146,-0.987714 -0.016683,-0.188441 c -0.00918,-0.103643 -0.02057,-0.960609 -0.02532,-1.90437 l -0.00864,-1.71593 -2.4950115,-0.995157 C 1.6808019,48.608441 0.55230226,48.156705 0.54528146,48.151919 c -0.020201,-0.01377 3.62990644,-9.126307 3.67414394,-9.172546 0.021842,-0.02283 1.1655944,0.409224 2.5416738,0.960118 l 2.5019663,1.001626 0.1530007,-0.204019 c 0.6082528,-0.811076 1.7417898,-2.030928 2.4607258,-2.648103 0.365033,-0.313366 0.472963,-0.437758 0.454358,-0.523658 -0.01342,-0.06197 -0.471409,-1.170826 -1.017754,-2.464138 -0.777979,-1.841635 -0.976952,-2.361777 -0.917699,-2.398988 0.04161,-0.02613 2.09192,-0.899 4.556244,-1.939707 2.939037,-1.241183 4.493177,-1.870647 4.517179,-1.829568 0.02012,0.03445 0.469576,1.095962 0.998782,2.358929 0.529205,1.262966 0.979001,2.313035 0.999546,2.333486 0.02054,0.02045 0.352396,0.0013 0.737446,-0.04261 0.77643,-0.0885 2.593693,-0.116489 3.416697,-0.05262 l 0.532318,0.04131 0.94718,-2.315933 c 0.520949,-1.273763 0.96552,-2.3372 0.987934,-2.363192 0.0357,-0.0414 9.037396,3.610761 9.135988,3.706645 0.02098,0.02041 -0.389794,1.080556 -0.912834,2.355891 -0.523039,1.275336 -0.930857,2.33569 -0.906261,2.356342 0.02459,0.02066 0.321955,0.2606 0.660799,0.533216 0.672663,0.541191 2.164876,2.010185 2.517839,2.478661 0.121844,0.161721 0.241454,0.294039 0.265798,0.294039 0.02434,0 1.055949,-0.416607 2.292456,-0.925793 1.236507,-0.509186 2.260939,-0.913049 2.276515,-0.897472 0.04414,0.04414 3.764636,9.123108 3.746156,9.141587 -0.009,0.009 -1.022943,0.430189 -2.253152,0.93592 l -2.236743,0.91951 0.0094,0.271762 c 0.08306,2.411261 0.08269,2.943006 -0.0026,3.742054 -0.04921,0.460871 -0.07086,0.854848 -0.0481,0.875506 0.02276,0.02065 1.043201,0.459774 2.267662,0.975814 1.224461,0.516041 2.226292,0.950338 2.226292,0.965105 0,0.08558 -3.832735,9.087303 -3.869176,9.087303 -0.02434,0 -1.070839,-0.432354 -2.325542,-0.960786 l -2.281278,-0.960789 -0.136622,0.162684 c -0.94522,1.125518 -2.083888,2.253561 -2.886669,2.85973 -0.190449,0.143805 -0.363755,0.276288 -0.385125,0.294406 -0.02137,0.01812 0.385722,1.090601 0.90465,2.383294 l 0.943504,2.350352 -4.569188,1.836198 c -2.513054,1.00991 -4.587116,1.836199 -4.609026,1.836199 -0.02191,0 -0.477878,-1.090043 -1.013262,-2.422318 z m 6.407334,-2.839099 c 0.02278,-0.01964 -0.32437,-0.94976 -0.77145,-2.066927 -0.447079,-1.11717 -0.799817,-2.052341 -0.783859,-2.078159 0.01596,-0.02581 0.544842,-0.417184 1.1753,-0.8697 1.710806,-1.227942 2.253537,-1.748195 3.82818,-3.66963 0.416533,-0.508267 0.798775,-0.968997 0.849429,-1.023846 0.08783,-0.0951 0.13866,-0.08386 1.096961,0.242699 0.552675,0.188335 1.449446,0.52935 1.992824,0.757812 0.543378,0.228463 1.010714,0.415387 1.038523,0.415387 0.05019,0 1.671567,-3.801821 1.633741,-3.830819 -0.01086,-0.0083 -0.851455,-0.36354 -1.867988,-0.789366 -1.016535,-0.425825 -1.865964,-0.789224 -1.887621,-0.807552 -0.02166,-0.01833 0.03659,-0.990973 0.129443,-2.161432 l 0.16882,-2.128108 -0.123078,-1.977824 c -0.07145,-1.148234 -0.102255,-1.998144 -0.07343,-2.026268 0.191208,-0.18659 2.04639,-1.164796 2.766,-1.458464 0.477463,-0.194849 0.888565,-0.371467 0.91356,-0.392484 0.04104,-0.03451 -1.430225,-3.71701 -1.527248,-3.822627 -0.02243,-0.02442 -0.87016,0.294054 -1.883836,0.707721 -1.013675,0.413667 -1.893453,0.766128 -1.955061,0.783246 -0.09153,0.02543 -0.22982,-0.118137 -0.756099,-0.784957 -1.52864,-1.936855 -2.080329,-2.485248 -4.004526,-3.980607 -0.616081,-0.478777 -1.151608,-0.89905 -1.190061,-0.93394 -0.09065,-0.08226 0.484164,-1.825803 1.058511,-3.210695 0.220521,-0.531729 0.390739,-0.975107 0.378263,-0.985284 -0.07662,-0.06251 -3.775081,-1.548428 -3.818231,-1.534045 -0.02918,0.0097 -0.419339,0.911496 -0.867016,2.00393 -0.447675,1.092435 -0.820176,1.993921 -0.82778,2.003302 -0.0076,0.0094 -0.70344,-0.04994 -1.546304,-0.131812 -2.034153,-0.197604 -3.181055,-0.177838 -5.12244,0.08828 -0.742317,0.101754 -1.390656,0.169279 -1.440754,0.150055 -0.160355,-0.06154 -1.175589,-2.172225 -1.926994,-4.006258 -0.01829,-0.04465 -0.07916,-0.06193 -0.152927,-0.04342 -0.125473,0.03149 -3.675363,1.531698 -3.712658,1.568993 -0.01135,0.01135 0.371482,0.955142 0.850733,2.097323 0.479251,1.14218 0.871365,2.098855 0.871365,2.125945 0,0.02709 -0.422155,0.399402 -0.938123,0.827364 -1.721007,1.427459 -2.309959,2.036801 -3.662521,3.789324 -0.493308,0.639184 -0.922423,1.162152 -0.953587,1.162152 -0.171248,0 -2.0388969,-0.642131 -3.1426088,-1.080485 -0.7478202,-0.297004 -1.2947039,-0.485408 -1.3213744,-0.455217 -0.1043303,0.118099 -1.5264551,3.790813 -1.4828744,3.829602 0.026168,0.02329 0.9864019,0.416245 2.1338526,0.873231 l 2.0862738,0.830883 -5.55e-5,0.311298 c -4.42e-5,0.171213 -0.040282,0.979184 -0.089414,1.795492 -0.093372,1.551282 -0.081891,2.240987 0.0606,3.640478 0.04548,0.446658 0.083184,0.860084 0.083792,0.918723 0.00113,0.110535 -0.1553723,0.270743 -0.9360598,0.958113 -0.5451179,0.47996 -0.9809879,0.714434 -2.3392627,1.258394 -0.5544729,0.222055 -1.0287613,0.423261 -1.0539742,0.447127 -0.054076,0.05116 1.4144913,3.866621 1.4882363,3.866621 0.027653,0 1.0222098,-0.378216 2.2101254,-0.840482 1.7456044,-0.679285 2.1754577,-0.827527 2.2412437,-0.77293 0.04477,0.03715 0.438204,0.558437 0.874302,1.158406 1.211187,1.666312 1.696532,2.169735 3.779536,3.920314 0.379681,0.319088 0.703228,0.613772 0.718992,0.654853 0.04426,0.115358 -0.615182,1.930258 -1.166043,3.20912 -0.272477,0.632574 -0.475769,1.169778 -0.451761,1.193786 0.06103,0.06104 3.649695,1.614352 3.728591,1.613883 0.0354,-2.23e-4 0.352515,-0.674398 0.704704,-1.498196 0.352189,-0.823798 0.760099,-1.756149 0.906467,-2.07189 0.245571,-0.529739 0.278301,-0.574025 0.423797,-0.573421 0.08672,3.36e-4 0.686942,0.07615 1.333827,0.168419 1.538099,0.219391 2.637334,0.299741 3.50046,0.255869 0.734296,-0.03732 2.508589,-0.179179 2.873687,-0.229751 l 0.213338,-0.02955 0.478287,0.995321 c 0.38451,0.800169 0.888659,1.984236 1.311045,3.079175 0.04658,0.120759 0.09113,0.106098 1.940233,-0.638593 1.040905,-0.419203 1.911195,-0.778259 1.933977,-0.797901 z"
     id="path7638"
     inkscape:connector-curvature="0" /><path
     style="opacity:1;fill:#000000;fill-opacity:1;stroke:none;stroke-width:0.05600736"
     d="m 51.598,32.664835 -0.694228,-1.735438 -1.537756,-0.02622 c -0.845765,-0.01442 -1.611354,-0.03368 -1.701308,-0.0428 l -0.163553,-0.01657 -0.704561,1.627265 c -0.387508,0.894995 -0.729765,1.680754 -0.760569,1.746131 -0.05401,0.114647 -0.171706,0.06876 -3.315107,-1.292558 -1.792504,-0.776284 -3.272835,-1.425162 -3.289624,-1.44195 -0.01678,-0.01678 0.309356,-0.821802 0.724767,-1.78892 0.41541,-0.967116 0.75462,-1.784487 0.7538,-1.81638 -8.25e-4,-0.03189 -0.192066,-0.221807 -0.42499,-0.422033 -0.50983,-0.43826 -1.572571,-1.594441 -1.793935,-1.951666 -0.0066,-0.01068 -0.801399,0.289178 -1.766184,0.666343 -0.964785,0.377164 -1.793856,0.696428 -1.842381,0.709474 -0.06999,0.01882 -0.358045,-0.666469 -1.393375,-3.314831 -0.717832,-1.836203 -1.295611,-3.346566 -1.283954,-3.356361 0.01165,-0.0098 0.849432,-0.341352 1.861723,-0.736793 l 1.840527,-0.718984 -0.03773,-0.432437 c -0.04685,-0.537101 -0.04597,-1.470191 0.0019,-1.959836 l 0.03611,-0.369682 -1.847058,-0.739225 -1.847057,-0.739226 1.117994,-2.811608 c 0.614896,-1.546384 1.210055,-3.0446613 1.322576,-3.3295038 0.112521,-0.2848439 0.230184,-0.5179746 0.261472,-0.5180683 0.03129,-1.118e-4 0.843988,0.3148694 1.806,0.6999201 0.962011,0.3850507 1.771651,0.7000919 1.799199,0.7000919 0.02755,0 0.27934,-0.2748502 0.559539,-0.6107774 0.2802,-0.3359272 0.785775,-0.8714976 1.123501,-1.1901561 L 41.017757,6.8726557 40.288306,5.1364275 C 39.887107,4.181502 39.554426,3.3792646 39.549013,3.3536778 c -0.01282,-0.06061 6.592977,-2.85374575 6.615045,-2.79704585 0.0092,0.02376 0.338292,0.79929885 0.731208,1.72342025 L 47.60966,3.960273 48.027001,3.932269 c 0.229538,-0.015402 1.002156,-0.028004 1.716931,-0.028004 1.295867,0 1.299756,-3.641e-4 1.357351,-0.1268352 0.03177,-0.06976 0.338085,-0.813257 0.680704,-1.6522171 0.342619,-0.8389599 0.644173,-1.54806715 0.670121,-1.57579345 0.02732,-0.029191 1.437768,0.52195695 3.350761,1.30934635 l 3.303584,1.3597577 -0.104,0.2588598 c -0.0572,0.1423729 -0.36869,0.9074075 -0.692202,1.7000769 l -0.588203,1.4412168 0.569831,0.4708325 c 0.53338,0.4407129 1.44461,1.3375604 1.791447,1.7631666 0.116261,0.1426658 0.183014,0.1802138 0.277814,0.1562685 0.06863,-0.017332 0.822393,-0.3183817 1.675027,-0.6689939 L 63.58641,7.7024739 63.786275,8.183682 c 0.109927,0.2646645 0.726816,1.7621893 1.370866,3.327834 l 1.171,2.846624 -0.232755,0.09882 c -0.128015,0.05435 -0.864731,0.358425 -1.637146,0.675722 l -1.404391,0.576903 0.0042,1.4063 c 0.0023,0.773465 -0.0084,1.578236 -0.0238,1.788381 l -0.02801,0.382084 1.624214,0.68694 c 1.137357,0.481031 1.619208,0.71066 1.607517,0.766069 -0.01765,0.08363 -2.700879,6.504081 -2.734136,6.542249 -0.01067,0.01225 -0.779711,-0.298249 -1.708971,-0.689998 -1.069415,-0.450837 -1.703074,-0.690415 -1.726369,-0.652722 -0.02024,0.03275 -0.273472,0.324524 -0.562731,0.648375 -0.523138,0.585704 -1.055719,1.090693 -1.602768,1.519736 l -0.286612,0.224786 0.667132,1.668653 c 0.366922,0.917758 0.658759,1.693773 0.648526,1.724473 -0.01594,0.04781 -6.500984,2.675362 -6.603045,2.675362 -0.02023,0 -0.349187,-0.780947 -0.731013,-1.735439 z m 3.356573,-1.528914 c 0.715851,-0.28388 1.301828,-0.537152 1.302172,-0.562829 3.36e-4,-0.02567 -0.254456,-0.680962 -0.566219,-1.456191 -0.311763,-0.775229 -0.577369,-1.436515 -0.590235,-1.469526 -0.01287,-0.03301 0.399732,-0.364672 0.916887,-0.737027 1.044736,-0.752215 1.776074,-1.45383 2.730375,-2.619403 0.302646,-0.369649 0.580205,-0.70474 0.616798,-0.744647 0.05392,-0.05881 0.219555,-0.02008 0.87409,0.204381 0.444156,0.152318 1.107307,0.406087 1.473668,0.563933 0.366362,0.157845 0.671782,0.280101 0.678712,0.271681 0.04078,-0.04956 1.147504,-2.716846 1.147504,-2.765572 0,-0.0326 -0.617787,-0.319403 -1.372863,-0.637335 L 60.7926,20.605328 60.82561,20.263849 c 0.01816,-0.187813 0.076,-0.908552 0.128537,-1.601645 0.08995,-1.186531 0.08997,-1.341981 4.49e-4,-2.660349 -0.0523,-0.770102 -0.09094,-1.403648 -0.08585,-1.407883 0.165954,-0.138185 1.642292,-0.901402 2.097711,-1.084445 0.344889,-0.138618 0.627256,-0.269588 0.627481,-0.291046 6.44e-4,-0.06134 -1.077518,-2.699445 -1.126148,-2.755512 -0.02444,-0.02817 -0.648459,0.200342 -1.423317,0.521208 -0.758894,0.314254 -1.400123,0.563658 -1.424954,0.55423 -0.02485,-0.0094 -0.372189,-0.420394 -0.771888,-0.913259 C 57.968734,9.5413966 57.467564,9.0545882 56.257367,8.1091135 55.7491,7.7120269 55.324332,7.3800814 55.313438,7.3714565 c -0.03607,-0.028552 0.391884,-1.2693153 0.73679,-2.136178 0.186724,-0.4693007 0.324249,-0.8685246 0.305609,-0.8871641 -0.05882,-0.058822 -2.741175,-1.1522503 -2.765928,-1.1274969 -0.01298,0.012985 -0.293934,0.6765277 -0.624332,1.4745406 l -0.60072,1.4509325 -1.036136,-0.1016372 c -1.278007,-0.1253629 -2.681697,-0.1009558 -3.8846,0.067544 -0.45771,0.064115 -0.874861,0.1165731 -0.927002,0.1165731 -0.101501,0 -0.742629,-1.258302 -1.184276,-2.3243054 -0.127622,-0.3080405 -0.253821,-0.5830917 -0.280441,-0.6112249 -0.04961,-0.052436 -2.796874,1.072026 -2.796874,1.14477 0,0.021257 0.267112,0.6660042 0.593583,1.4327724 0.326469,0.7667682 0.614967,1.4489496 0.641107,1.5159583 0.04219,0.1081485 -0.0355,0.1896825 -0.691594,0.7258693 -1.036746,0.8472644 -1.803752,1.6386313 -2.605286,2.6880318 l -0.690011,0.903388 -0.746425,-0.236992 c -0.410534,-0.130346 -1.140736,-0.395083 -1.622671,-0.588303 -0.481935,-0.193221 -0.885375,-0.341879 -0.896531,-0.330352 -0.03997,0.04129 -1.095106,2.708287 -1.095106,2.768012 0,0.03355 0.695877,0.336518 1.546395,0.673245 l 1.546394,0.612231 -0.03389,0.588077 c -0.09522,1.652164 -0.100204,2.6784 -0.01693,3.487698 l 0.08513,0.827349 -0.289375,0.269908 c -0.787965,0.734956 -0.936619,0.824183 -2.207628,1.325089 -0.377349,0.148714 -0.68609,0.289966 -0.68609,0.313893 0,0.05666 1.049004,2.740775 1.085354,2.777125 0.01525,0.01525 0.750781,-0.253152 1.634504,-0.596457 0.883722,-0.343305 1.61238,-0.616853 1.619238,-0.607884 0.0068,0.009 0.316369,0.432161 0.6878,0.940428 0.731513,1.001001 1.377879,1.680985 2.47809,2.606979 0.354247,0.298153 0.6746,0.57075 0.711896,0.605773 0.08164,0.07667 -0.272814,1.108273 -0.826746,2.406147 -0.292349,0.684981 -0.340257,0.839109 -0.273774,0.880784 0.139128,0.08721 2.692589,1.184474 2.709724,1.164408 0.009,-0.0105 0.311639,-0.701274 0.672612,-1.535058 l 0.656316,-1.515973 0.877341,0.133361 c 1.408429,0.214088 3.455278,0.229038 4.784319,0.03494 l 0.210492,-0.03074 0.340515,0.719095 c 0.187284,0.395503 0.436844,0.958527 0.55458,1.251166 0.412226,1.024614 0.440723,1.078829 0.546662,1.040014 0.05363,-0.01965 0.683213,-0.267994 1.399064,-0.551874 z"
     id="path7640"
     inkscape:connector-curvature="0" /><path
     style="opacity:1;fill:#000000;fill-opacity:1;stroke:none;stroke-width:0.05600736"
     d="m 29.643591,32.531575 c -0.299333,0.506175 -0.458938,1.10532 -0.718365,1.641612 -0.331282,0.78572 -0.648865,1.589117 -0.978921,2.367836 -1.794555,-0.154259 -3.610423,-0.371024 -5.41554,-0.172945 -0.894567,0.04109 -1.771861,0.271881 -2.668881,0.262207 -0.536122,-1.067943 -1.078191,-2.135428 -1.527733,-3.242411 -0.176314,-0.225691 -0.167034,-0.639648 -0.438183,-0.749862 -0.488218,0.105557 -0.963367,0.352251 -1.426249,0.49422 -0.474345,0.28389 -1.030025,0.403455 -1.52195,0.661869 -0.274866,0.176102 -0.736236,0.211322 -0.855191,0.557713 0.174745,0.715138 0.557176,1.369251 0.782353,2.070303 0.28263,0.631218 0.524089,1.288907 0.810247,1.921424 -0.0016,0.282753 -0.368886,0.41571 -0.525108,0.617342 -0.607593,0.543224 -1.259084,1.014719 -1.824262,1.604665 -1.040813,0.981226 -1.921103,2.111638 -2.783397,3.246587 -0.152697,0.114086 -0.192269,0.439949 -0.435918,0.310775 -1.4330717,-0.392999 -2.8088849,-1.021669 -4.2338054,-1.467678 -0.2934056,0.02287 -0.291551,0.436573 -0.4231181,0.637303 -0.4028865,1.04435 -0.8465892,2.078134 -1.210284,3.139147 0.00295,0.347921 0.483397,0.350011 0.714422,0.483938 0.4515043,0.218476 0.9309715,0.367486 1.3927455,0.555479 0.6935993,0.281438 1.4063728,0.560923 2.1003851,0.863849 -0.06465,1.955747 -0.2861242,3.925649 -0.00585,5.87375 -0.028748,0.330529 0.209667,0.769741 -0.153132,0.969076 -0.7115128,0.716775 -1.5260682,1.358892 -2.5010114,1.669965 -0.5181562,0.230084 -1.0810111,0.390553 -1.5592361,0.695168 -0.1314616,0.267223 0.1411679,0.558142 0.1829671,0.82837 0.3023507,0.84429 0.6643269,1.664537 0.9759039,2.504178 0.1191517,0.266013 0.2128932,0.795229 0.6128369,0.530458 0.8927342,-0.278803 1.7507283,-0.660297 2.6339378,-0.961002 0.390699,-0.176095 0.8043959,-0.293699 1.2004784,-0.465765 0.1679703,-0.08286 0.3432843,-0.143857 0.4289573,0.06986 0.265546,0.301 0.454469,0.645487 0.708227,0.957166 0.11985,0.110044 0.134828,0.279566 0.287475,0.363829 0.181623,0.371525 0.566413,0.629184 0.720329,0.990958 0.06674,0.152038 0.263382,0.131287 0.327401,0.303009 0.977738,1.068071 2.128295,1.959307 3.181153,2.945856 -0.425443,1.411161 -1.000487,2.761608 -1.577723,4.112165 -0.122543,0.299989 0.195184,0.469358 0.434375,0.53301 1.084313,0.484533 2.170841,0.940135 3.263205,1.413575 0.3066,-0.0017 0.310449,-0.444552 0.462279,-0.65229 0.447628,-1.012506 0.888628,-2.033849 1.334331,-3.042883 0.102503,-0.215808 0.185335,-0.538865 0.476173,-0.40846 1.761698,0.199378 3.53698,0.510336 5.319986,0.345058 0.804253,-0.02671 1.632184,-0.161048 2.417671,-0.182616 0.536812,1.202049 1.117954,2.385368 1.580676,3.619804 0.07757,0.216116 0.263459,0.65304 0.554276,0.43723 1.157592,-0.473806 2.323267,-0.937195 3.484336,-1.412373 0.291998,-0.149105 0.0079,-0.501216 -0.0328,-0.722561 -0.327054,-0.828096 -0.660711,-1.640941 -0.981845,-2.471781 -0.129896,-0.342064 -0.308403,-0.681101 -0.399381,-1.03001 0.665711,-0.514336 1.370216,-0.991048 2.02972,-1.500275 1.19934,-0.967524 2.195605,-2.16029 3.202374,-3.319859 0.228332,-0.245898 0.419216,-0.569743 0.665415,-0.778086 1.35415,0.40868 2.636722,0.984825 3.972913,1.442517 0.295925,-0.06375 0.272921,-0.484413 0.431978,-0.696372 0.457369,-1.002815 0.86432,-2.019211 1.267167,-3.037962 -0.02302,-0.352825 -0.507835,-0.347605 -0.736171,-0.513593 -0.994294,-0.451882 -2.004307,-0.83322 -3.002977,-1.266063 0.08945,-1.264045 0.206904,-2.521559 0.286622,-3.783856 0.0607,-1.472909 -0.135387,-2.936332 -0.184998,-4.40547 0.287664,-0.19771 0.5895,-0.322188 0.875115,-0.497174 0.721462,-0.439415 1.513204,-0.816167 2.310632,-1.11435 0.203675,-0.11597 0.649889,-0.220744 0.474202,-0.542462 -0.233765,-0.559024 -0.434282,-1.124312 -0.674605,-1.681315 -0.113577,-0.278663 -0.209835,-0.546917 -0.34578,-0.809481 -0.129958,-0.367865 -0.254376,-0.757608 -0.479015,-1.079235 -0.29231,-0.185187 -0.605292,0.145946 -0.892098,0.207288 -0.3746,0.117865 -0.731596,0.258717 -1.086756,0.434671 -0.656398,0.269559 -1.317497,0.514819 -1.980057,0.768944 -0.873578,-1.114026 -1.77857,-2.204484 -2.802867,-3.185006 -0.923715,-0.890836 -1.963956,-1.662401 -2.971033,-2.459594 -0.178777,-0.126809 0.07234,-0.384061 0.08124,-0.563482 0.376801,-1.170643 0.814369,-2.320819 1.273872,-3.460626 0.0269,-0.343998 -0.458155,-0.357357 -0.6746,-0.502347 -1.052022,-0.428785 -2.098037,-0.904868 -3.167579,-1.274312 l -0.05599,0.0013 z m -12.950499,0.581841 c 0.01891,0.0215 -0.0652,-0.0371 0,0 z m 0.05284,0.07242 c 0.01583,0.04497 -0.02289,-0.03872 0,0 z m -2.413676,6.729524 c 0.03112,0.05551 -0.05366,-0.05079 0,0 z m 20.413479,0.49105 c 0.05679,0.02698 -0.196464,-0.03424 0,0 z m 6.058202,2.545928 c 0.08769,0.121096 -0.06349,-0.04685 0,0 z M 24.137045,43.06479 c 1.053391,-0.01188 2.114682,0.15917 3.10447,0.518396 0.766771,0.30511 1.521377,0.653435 2.179474,1.161278 1.956401,1.394068 3.295639,3.586765 3.681404,5.953513 0.09413,1.102992 0.137354,2.234293 -0.08906,3.329379 -0.204371,0.898141 -0.506298,1.74841 -0.976774,2.542414 -0.656207,1.224072 -1.670136,2.226286 -2.765984,3.061275 -1.15127,0.731695 -2.426495,1.301926 -3.788482,1.478288 -1.171805,0.0433 -2.401178,0.174947 -3.53437,-0.165068 -1.605315,-0.409129 -3.096199,-1.227234 -4.242674,-2.423631 -1.379201,-1.404872 -2.356836,-3.268829 -2.560852,-5.221828 -0.06341,-1.253631 -0.113369,-2.591948 0.311485,-3.81461 0.487982,-1.655369 1.460723,-3.159446 2.789817,-4.263203 1.630625,-1.414769 3.722495,-2.182156 5.891543,-2.156203 z M 6.7280516,47.53378 c -0.062956,0.04043 0.076876,-0.08739 0,0 z"
     id="path7662"
     inkscape:connector-curvature="0" /><path
     style="opacity:1;fill:#000000;fill-opacity:1;stroke:none;stroke-width:0.05600736"
     d="M 53.654667,3.1577925 C 53.369598,3.3426781 53.32534,3.7536443 53.154976,4.031923 52.869707,4.6936658 52.601038,5.362563 52.320226,6.0260913 50.911256,5.9197263 49.491203,5.760815 48.079869,5.9461723 47.566341,5.9898733 47.032858,6.1061181 46.532106,6.1142589 45.951696,5.2272572 45.581192,4.2249556 45.157847,3.2584305 44.936732,3.0461078 44.640553,3.366996 44.396683,3.4056126 43.68853,3.6993042 42.973059,3.9787849 42.278719,4.303646 c -0.185413,0.2270889 0.101823,0.5146156 0.141889,0.7547472 0.318112,0.8171756 0.699759,1.6095582 0.979352,2.4415013 -1.111322,0.935681 -2.248342,1.8646242 -3.110782,3.0478365 -0.269686,0.338627 -0.525651,0.705721 -0.800763,1.029214 -1.111966,-0.267059 -2.148008,-0.738416 -3.217121,-1.112407 -0.284385,0.136928 -0.285672,0.59644 -0.450538,0.862302 -0.244088,0.663769 -0.567413,1.314123 -0.759932,1.988152 0.07927,0.257615 0.471008,0.24705 0.676128,0.387011 0.787319,0.324936 1.583823,0.6278 2.364952,0.967598 -2.97e-4,1.439694 -0.18062,2.887447 0.02461,4.325503 0.13561,0.38338 -0.05449,0.644204 -0.361091,0.861196 -0.704699,0.773819 -1.754081,1.00049 -2.669319,1.433548 -0.210325,0.215183 0.0956,0.508681 0.129443,0.749773 0.30207,0.720238 0.518289,1.489611 0.91971,2.161624 0.249824,0.147756 0.530053,-0.136962 0.785715,-0.178854 0.81979,-0.302948 1.63365,-0.652904 2.463259,-0.911539 0.756973,1.004491 1.457522,2.070667 2.443869,2.872237 0.46763,0.422653 0.943876,0.835938 1.433,1.233584 -0.325426,1.051332 -0.806346,2.04494 -1.174186,3.079092 -0.03442,0.309961 0.404637,0.31385 0.596468,0.452542 0.725604,0.30639 1.444726,0.657269 2.18082,0.920122 0.288292,-0.128561 0.30242,-0.588127 0.47472,-0.849197 0.313952,-0.72443 0.62699,-1.449258 0.942638,-2.172949 1.878176,0.336785 3.806332,0.370921 5.696779,0.158833 0.190949,0.01204 0.197394,0.342627 0.312745,0.477047 0.406559,0.792147 0.676494,1.649977 1.098378,2.432054 0.227739,0.195248 0.521163,-0.135562 0.766154,-0.167568 0.702127,-0.30326 1.451349,-0.537876 2.124329,-0.886397 0.129357,-0.23217 -0.144741,-0.503161 -0.184948,-0.74443 -0.29956,-0.763795 -0.615639,-1.521125 -0.906298,-2.288392 1.030515,-0.765773 2.10127,-1.501783 2.935682,-2.492 0.459806,-0.499781 0.866683,-1.062845 1.340567,-1.539983 0.965095,0.262958 1.866254,0.716567 2.819292,1.008133 0.305795,0.0079 0.302088,-0.41936 0.441873,-0.614613 0.301593,-0.704308 0.617943,-1.403521 0.891694,-2.119028 -0.02707,-0.294615 -0.440462,-0.281007 -0.638202,-0.4268 -0.682944,-0.314348 -1.437629,-0.575984 -2.079359,-0.911907 0.09524,-1.54722 0.312324,-3.099646 0.13128,-4.651209 -0.0098,-0.412362 -0.09023,-0.861387 -0.0453,-1.255599 0.810457,-0.506917 1.706127,-0.883798 2.566492,-1.308079 0.267147,-0.203137 -0.09547,-0.534743 -0.130931,-0.777742 -0.291429,-0.69689 -0.562369,-1.403718 -0.879936,-2.088915 -0.246966,-0.174757 -0.546563,0.114592 -0.804121,0.15763 -0.70463,0.262035 -1.404407,0.602494 -2.110668,0.819983 C 58.872778,10.56462 58.184274,9.6277124 57.304552,8.872512 56.711209,8.3079998 55.992998,7.8433719 55.420538,7.2878973 55.70947,6.3207977 56.11871,5.3967161 56.422109,4.437648 56.421132,4.1244861 55.975388,4.1375716 55.772201,3.9930904 55.067015,3.720591 54.378104,3.3639986 53.654667,3.1577925 Z m -4.090178,7.7360165 c 0.776379,-0.03863 1.558978,0.04805 2.279512,0.353889 2.200623,0.812608 3.922553,2.863325 4.202137,5.198496 0.304761,2.073542 -0.400646,4.274234 -1.944944,5.726535 -1.18249,1.137344 -2.822111,1.810174 -4.474032,1.800951 -1.326157,0.06779 -2.637579,-0.389342 -3.738484,-1.103485 -1.80891,-1.211025 -2.980544,-3.381968 -2.854625,-5.566607 -0.0417,-1.910588 0.887187,-3.751198 2.347387,-4.9479 0.966265,-0.773145 2.102546,-1.33986 3.341954,-1.451378 0.280205,-0.01176 0.56072,-0.0094 0.841095,-0.0105 z"
     id="path7664"
     inkscape:connector-curvature="0" /></svg>